<?xml version="1.0" encoding="UTF-8" standalone="no"?>
<!-- Created with Inkscape (http://www.inkscape.org/) -->

<svg
   xmlns:dc="http://purl.org/dc/elements/1.1/"
   xmlns:cc="http://creativecommons.org/ns#"
   xmlns:rdf="http://www.w3.org/1999/02/22-rdf-syntax-ns#"
   xmlns:svg="http://www.w3.org/2000/svg"
   xmlns="http://www.w3.org/2000/svg"
   xmlns:sodipodi="http://sodipodi.sourceforge.net/DTD/sodipodi-0.dtd"
   xmlns:inkscape="http://www.inkscape.org/namespaces/inkscape"
   width="210mm"
   height="297mm"
   viewBox="0 0 210 297"
   version="1.1"
   id="svg67"
   inkscape:version="0.92.2 (5c3e80d, 2017-08-06)"
   sodipodi:docname="vs_curva.svg">
  <defs
     id="defs61" />
  <sodipodi:namedview
     id="base"
     pagecolor="#ffffff"
     bordercolor="#666666"
     borderopacity="1.0"
     inkscape:pageopacity="0.0"
     inkscape:pageshadow="2"
     inkscape:zoom="1.5025297"
     inkscape:cx="162.29568"
     inkscape:cy="944.03778"
     inkscape:document-units="mm"
     inkscape:current-layer="layer1"
     showgrid="false"
     inkscape:window-width="1366"
     inkscape:window-height="705"
     inkscape:window-x="-8"
     inkscape:window-y="-8"
     inkscape:window-maximized="1" />
  <metadata
     id="metadata64">
    <rdf:RDF>
      <cc:Work
         rdf:about="">
        <dc:format>image/svg+xml</dc:format>
        <dc:type
           rdf:resource="http://purl.org/dc/dcmitype/StillImage" />
        <dc:title></dc:title>
      </cc:Work>
    </rdf:RDF>
  </metadata>
  <g
     inkscape:label="Capa 1"
     inkscape:groupmode="layer"
     id="layer1">
    <path
       style="fill:#916f6f;stroke-width:0.26458332"
       id="path69"
       d="m 28.172621,27.955185 c 2.679695,-1.513756 5.306129,-3.125931 8.039084,-4.541269 0.848447,-0.439391 -1.579806,1.075169 -2.373471,1.607169 -1.105752,0.741199 -2.208967,1.486361 -3.324736,2.212393 -6.760239,4.398907 -13.818075,8.271375 -20.8144742,12.285387 -1.152912,0.613246 -2.253691,1.336601 -3.458735,1.839735 -0.818977,0.341943 -1.698068,0.81964 -2.574386,0.679236 -2.3080325,-0.369789 -0.816348,-3.749439 -0.482802,-4.418422 1.437362,-2.882871 5.329101,-7.006977 7.2450382,-9.220714 4.72945,-5.141158 10.081895,-9.643906 15.727082,-13.739825 1.440934,-1.045485 2.881783,-2.098704 4.40636,-3.017943 12.508238,-7.5418113 8.081285,-6.2615403 15.671437,-7.8979533 0.743569,0.44909 1.800485,0.59263 2.230705,1.347271 2.262058,3.96783 -1.646962,13.6717203 -2.91343,17.0498533 -2.739041,7.306025 -4.661159,11.151249 -7.945922,18.323116 -4.056885,8.682807 -8.54185,17.151731 -13.153506,25.549077 -2.30391,4.19517 -4.756052,8.31054 -6.749461,12.66502 -3.166235,1.28075 -6.093009,3.58417 -9.4987052,3.84226 -1.51971,0.11516 2.1303442,-2.18466 3.1034462,-3.35763 1.793745,-2.16216 3.486826,-4.40627 5.190645,-6.63998 7.221134,-9.466924 14.149074,-19.138064 21.011895,-28.865607 5.240279,-7.471074 10.488702,-14.936312 15.760686,-22.385033 0,0 9.07991,-3.928417 9.07991,-3.928417 v 0 c -5.621335,7.523617 -11.207536,15.07364 -16.626779,22.74508 -6.724113,9.545982 -13.521772,19.038366 -20.266625,28.569617 -1.503545,2.12468 -3.024841,4.23699 -4.504973,6.37805 -0.789345,1.14181 -1.120868,2.74173 -2.302807,3.46962 -3.338378,2.05593 -7.213371,3.07469 -10.8200572,4.61204 C 15.35104,70.431676 23.008002,57.793607 29.118496,44.341161 c 3.698483,-8.23246 7.656473,-16.506097 9.780624,-25.332552 0.205743,-0.854919 1.385695,-6.255139 0.429594,-7.957098 -0.297717,-0.529965 -1.099217,-0.519342 -1.648828,-0.779015 -0.899396,0.243964 -3.366958,1.380871 -2.698187,0.73189 1.439821,-1.3972013 3.16134,-2.8591963 5.151568,-3.1126503 1.828072,-0.232805 -3.105931,1.986351 -4.614836,3.0443013 -5.694704,3.992763 -11.103658,8.401441 -15.814673,13.538154 -3.553302,4.167778 -4.017332,4.393632 -6.720219,8.572479 -0.399726,0.618003 -0.852841,1.229093 -1.066396,1.93344 -0.57974,1.912099 7.39101,-2.908398 5.926142,-2.042768 -1.68457,0.991629 -3.372984,1.976755 -5.053709,2.974885 -1.352536,0.80323 2.727671,-1.568585 4.069133,-2.390175 6.737038,-4.126161 12.810837,-9.202459 20.04568,-12.551457 0,0 -8.731768,6.98459 -8.731768,6.98459 z"
       inkscape:connector-curvature="0" />
    <path
       style="fill:#916f6f;stroke-width:0.26458332"
       id="path71"
       d="m 83.480224,0.030703 c -7.547621,4.893493 -14.153719,11.110762 -20.64027,17.303554 -1.733072,1.826853 -3.130572,3.097596 -4.484841,5.156732 -0.417045,0.634103 -1.060903,1.906852 -0.730634,2.158553 0.169505,0.129182 0.411893,-0.11012 0.619861,-0.15671 0.47748,-0.106974 0.957434,-0.202608 1.436153,-0.303909 4.924417,-1.097788 9.800277,-2.382284 14.762048,-3.313207 0.583346,-0.02466 1.170096,-0.141537 1.750034,-0.07393 1.134628,0.132265 2.026472,0.578797 2.356921,1.807697 1.071311,3.984072 -3.912057,9.779894 -5.64656,12.389977 -2.293355,2.821638 -4.486061,5.728155 -6.880063,8.464917 -12.886129,14.731064 -27.514815,27.953884 -42.699749,40.262384 -3.093038,2.50714 -6.27143,4.90709 -9.407145,7.36064 0,0 -8.334102,3.32857 -8.334102,3.32857 v 0 c 3.26189,-2.49352 6.572164,-4.925 9.78567,-7.48057 15.111021,-12.01719 29.648004,-25.0435 42.125984,-39.823446 2.204795,-2.611541 4.187257,-5.402953 6.280883,-8.104428 2.151685,-3.411654 3.870907,-5.467398 5.046515,-9.113332 0.211523,-0.656003 0.505036,-1.892353 -0.350542,-2.360986 -0.691896,-0.378981 -2.115023,-0.124827 -2.748515,-0.0728 -5.008502,0.926142 -9.910175,2.29756 -14.90486,3.276801 -1.219539,-0.02876 -2.297597,0.289838 -3.096734,-0.954341 -1.372745,-2.13723 4.583883,-7.420745 5.549093,-8.511543 6.341115,-6.027174 12.745053,-12.072448 19.823382,-17.233183 0,0 10.387471,-4.007437 10.387471,-4.007437 z"
       inkscape:connector-curvature="0" />
  </g>
</svg>
